Coordinates
version=1
nRows=7
nColumns=63
inDegrees=yes

Units are S.I. units (second, meters, Newtons, ...)
If the header above contains a line with 'inDegrees', this indicates whether rotational values are in degrees (yes) or radians (no).

endheader
time	pelvis_tilt	pelvis_list	pelvis_rotation	pelvis_tx	pelvis_ty	pelvis_tz	hip_flexion_r	hip_adduction_r	hip_rotation_r	knee_angle_r	knee_angle_r_beta	ankle_angle_r	subtalar_angle_r	mtp_angle_r	hip_flexion_l	hip_adduction_l	hip_rotation_l	knee_angle_l	knee_angle_l_beta	ankle_angle_l	subtalar_angle_l	mtp_angle_l	L5_S1_Flex_Ext	L5_S1_Lat_Bending	L5_S1_axial_rotation	L4_L5_Flex_Ext	L4_L5_Lat_Bending	L4_L5_axial_rotation	L3_L4_Flex_Ext	L3_L4_Lat_Bending	L3_L4_axial_rotation	L2_L3_Flex_Ext	L2_L3_Lat_Bending	L2_L3_axial_rotation	L1_L2_Flex_Ext	L1_L2_Lat_Bending	L1_L2_axial_rotation	L1_T12_Flex_Ext	L1_T12_Lat_Bending	L1_T12_axial_rotation	Abs_r3	Abs_r2	Abs_r1	Abs_t1	Abs_t2	neck_flexion	neck_bending	neck_rotation	arm_flex_r	arm_add_r	arm_rot_r	elbow_flex_r	pro_sup_r	wrist_flex_r	wrist_dev_r	arm_flex_l	arm_add_l	arm_rot_l	elbow_flex_l	pro_sup_l	wrist_flex_l	wrist_dev_l
      2.10000000	      0.15218176	     -5.88550806	    123.86881787	      0.03580780	      1.30548179	     -0.00210880	      3.47082369	     -2.85690194	    -19.47742471	     20.80353089	      0.36309011	     35.53648156	    -17.36423269	      0.00000000	      2.72543484	      7.94492777	     11.07709797	      8.04699066	      0.14044648	     32.96242205	     10.07677600	      0.00000000	     -0.02913667	     -1.57724541	     -0.11797434	     -0.05410970	     -2.09773639	     -0.12534773	     -0.04786863	     -3.83491448	     -0.12534773	     -0.03330030	     -3.83491448	     -0.10322754	     -0.02705631	     -3.21631884	     -0.09585415	     -0.01664869	     -2.44315314	     -0.08848075	     -0.20812029	    -17.84211550	     -0.65613787	      0.00000000	      0.00000000	     -0.48137893	      4.89480810	    -36.07356627	    -16.77121633	    -24.01492941	    145.66870415	      0.11644442	      2.77746997	    -69.44778442	    -24.04688267	      0.71373624	    -23.50551497	     79.99210242	      0.39688058	      1.58420477	    -19.20571514	    -24.28489444
      2.11666667	     -0.38279743	     -5.70928533	    121.23595058	      0.03568705	      1.30779825	      0.00401455	      2.04542854	     -2.91878017	    -21.90512032	     18.69173219	      0.32623227	     35.38822868	    -11.72189665	      0.00000000	      2.15462360	      8.68270407	     12.11104157	      6.80645003	      0.11879496	     30.08810879	      7.60142102	      0.00000000	     -0.03341914	     -1.64071961	     -0.46888364	     -0.06206269	     -2.18215708	     -0.49818887	     -0.05490431	     -3.98924565	     -0.49818887	     -0.03819474	     -3.98924565	     -0.41027318	     -0.03103302	     -3.34575542	     -0.38096796	     -0.01909570	     -2.54147467	     -0.35166273	     -0.23870961	    -18.56014835	     -2.60779013	      0.00000000	      0.00000000	     -1.66346850	      6.77289743	    -33.68732513	     -8.09657857	    -29.28696911	    142.82821917	      0.09472786	      1.63716113	    -69.69974621	    -24.16968245	     -1.31359583	    -23.20667613	     85.26209663	      0.26776261	      2.24609350	    -56.21208310	    -23.71126874
      2.13333333	     -2.25841397	     -3.12385249	    117.60613645	      0.04063409	      1.31038076	      0.01671882	     -0.90704569	     -3.44741267	    -22.57129809	     18.17420611	      0.31719974	     35.66062383	     -6.25169741	      0.00000000	     -0.37972176	      9.49348934	     12.25364651	      6.20770999	      0.10834498	     28.25176449	      4.97757384	      0.00000000	     -0.17178470	     -1.60952529	     -4.24068023	     -0.31902137	     -2.14066863	     -4.50572274	     -0.28222508	     -3.91339978	     -4.50572274	     -0.19633273	     -3.91339978	     -3.71059520	     -0.15951927	     -3.28214396	     -3.44555268	     -0.09815778	     -2.49315467	     -3.18051017	     -1.22704093	    -18.20727194	    -23.58539122	      0.00000000	      0.00000000	     -2.76289610	      4.57367780	     -6.53663209	     26.02900357	    -28.73722964	    168.92405177	      0.10340686	      1.32026675	    -69.73146573	    -23.98832305	    -16.48754977	    -20.42334726	     65.44747699	      0.17632344	      1.83043317	    -69.04320351	    -23.26392575
      2.15000000	     -3.75118888	     -1.31454517	    114.66878771	      0.04415013	      1.30638105	      0.02340127	     -2.99013351	     -4.22558993	    -22.29335764	     18.25433854	      0.31859831	     36.72869402	     -2.56254491	      0.00000000	     -2.39934749	     10.41228252	     12.23937564	      5.49232314	      0.09585912	     28.58157336	      3.36230526	      0.00000000	     -0.17791274	     -1.50738794	     -7.10061122	     -0.33040174	     -2.00482597	     -7.54439942	     -0.29229284	     -3.66506305	     -7.54439942	     -0.20333647	     -3.66506305	     -6.21303482	     -0.16520977	     -3.07386550	     -5.76924662	     -0.10165934	     -2.33494393	     -5.32545842	     -1.27081289	    -17.05187390	    -39.49146943	      0.00000000	      0.00000000	     -0.84018773	      0.97929031	     20.18832934	     49.78287968	    -16.18653021	    183.09125617	      0.12127064	      1.30312042	    -69.69049525	    -23.56759743	    -27.33085086	    -14.62216954	     49.70337143	      0.15624713	      1.56300778	    -69.37721060	    -23.34573074
      2.16666667	     -4.60504285	     -0.61358531	    112.77082330	      0.04602199	      1.30206985	      0.02516493	     -4.10797026	     -4.98363956	    -22.67616897	     18.20832970	      0.31779530	     37.59038206	      0.68073040	      0.00000000	     -3.56205896	     11.11759829	     12.41464341	      4.47316919	      0.07807153	     29.04617848	      2.04754121	      0.00000000	     -0.08169407	     -1.39858455	     -8.66884679	     -0.15171405	     -1.86011745	     -9.21064971	     -0.13421518	     -3.40051848	     -9.21064971	     -0.09336815	     -3.40051848	     -7.58524094	     -0.07586111	     -2.85199362	     -7.04343801	     -0.04667999	     -2.16640747	     -6.50163509	     -0.58353255	    -15.82106817	    -48.21352518	      0.00000000	      0.00000000	      0.79936183	     -0.95247704	     38.13154897	     63.01444727	     -4.91677146	    184.12527773	      0.12126671	      1.27557784	    -69.68316331	    -23.43158987	    -33.59183397	    -10.63573885	     40.91773979	      0.14480251	      1.40570517	    -69.52168712	    -23.44149417
      2.18333333	     -5.06267718	     -0.31777707	    111.51258803	      0.04734434	      1.29867265	      0.02446676	     -4.68708656	     -5.52157151	    -22.61233116	     18.27519399	      0.31896231	     38.27486306	      2.38724587	      0.00000000	     -4.32491960	     11.50461732	     12.06437560	      3.52964309	      0.06160389	     29.88757223	      1.19654087	      0.00000000	      0.05705295	     -1.30276872	     -9.63251587	      0.10595303	     -1.73268240	    -10.23454811	      0.09373229	     -3.16755187	    -10.23454811	      0.06520582	     -3.16755187	     -8.42845139	      0.05297937	     -2.65660598	     -7.82641915	      0.03260006	     -2.01798875	     -7.22438690	      0.40752351	    -14.73718033	    -53.57316352	      0.00000000	      0.00000000	      4.43070602	     -4.90786374	     44.26754058	     72.68517889	      3.87911851	    181.43950424	      0.10764467	      1.15416699	    -69.71124234	    -23.59787940	    -38.65341612	     -8.27403090	     36.12286216	      0.12823483	      1.17114529	    -69.64184085	    -23.49310063
      2.20000000	     -5.39433629	     -0.34607431	    112.02500467	      0.04811165	      1.29611381	      0.02280394	     -5.14311018	     -5.93065410	    -23.88561251	     18.28988386	      0.31921869	     39.05892288	      3.49610377	      0.00000000	     -4.86824597	     11.63134099	     12.82372769	      2.89059652	      0.05045043	     30.99567568	      0.84148249	      0.00000000	      0.23921760	     -1.25627684	    -10.59476046	      0.44425101	     -1.67084820	    -11.25693299	      0.39301060	     -3.05451151	    -11.25693299	      0.27340180	     -3.05451151	     -9.27041541	      0.22213747	     -2.56179973	     -8.60824288	      0.13668894	     -1.94597282	     -7.94607035	      1.70870741	    -14.21125486	    -58.92487928	      0.00000000	      0.00000000	      8.13802569	     -8.60911761	     44.70328365	     80.60540981	     11.13758154	    176.44557117	      0.09220745	      1.09259662	    -69.74966336	    -23.94990360	    -43.70472779	     -6.75026272	     30.62611253	      0.11612659	      1.26052697	    -69.71615646	    -23.92284944
